<svg width="68" height="25" viewBox="0 0 68 25" fill="none" xmlns="http://www.w3.org/2000/svg">
<rect x="0.5" width="67" height="25" rx="4" fill="white"/>
<path d="M27.7188 5.05453C27.7188 4.56422 28.1162 4.16675 28.6065 4.16675V4.16675C29.0968 4.16675 29.4943 4.56422 29.4943 5.05453V9.44963C29.4943 9.93994 29.0968 10.3374 28.6065 10.3374V10.3374C28.1162 10.3374 27.7188 9.93993 27.7188 9.44962V5.05453ZM33.932 5.48022C34.5359 5.48022 35.0202 5.65652 35.3848 6.00913C35.7555 6.36174 35.9407 6.89359 35.9407 7.60469V9.48549C35.9407 9.95599 35.5593 10.3374 35.0888 10.3374V10.3374C34.6183 10.3374 34.2369 9.95599 34.2369 9.48549V7.87796C34.2369 7.22563 33.971 6.89947 33.4388 6.89947C33.146 6.89947 32.9097 6.9935 32.7304 7.18156C32.557 7.36961 32.4703 7.6517 32.4703 8.02782V9.48549C32.4703 9.95599 32.0889 10.3374 31.6184 10.3374V10.3374C31.1479 10.3374 30.7665 9.95599 30.7665 9.48549V6.37112C30.7665 5.9229 31.1298 5.55955 31.578 5.55955H32.2383C32.3218 5.55955 32.3896 5.62731 32.3896 5.71089V5.71089C32.3896 5.84619 32.5606 5.92007 32.6727 5.84435C32.7949 5.76187 32.9277 5.69339 33.0711 5.63889C33.3343 5.53311 33.6212 5.48022 33.932 5.48022ZM38.8668 10.4167C38.4603 10.4167 38.0597 10.3727 37.6651 10.2845C37.4994 10.245 37.3474 10.2009 37.2091 10.1521C36.9145 10.048 36.8097 9.70981 36.937 9.42442V9.42442C37.0901 9.08123 37.5139 8.95048 37.8727 9.06207C37.9191 9.07647 37.9664 9.09021 38.0149 9.10328C38.3198 9.17968 38.6217 9.21788 38.9206 9.21788C39.1956 9.21788 39.3898 9.19143 39.5035 9.13854C39.623 9.07977 39.6828 8.99749 39.6828 8.89171C39.6828 8.78593 39.6111 8.71247 39.4676 8.67133C39.3302 8.62432 39.1089 8.58025 38.804 8.5391C38.4155 8.49209 38.0837 8.43039 37.8086 8.35398C37.5396 8.27758 37.3064 8.13654 37.1091 7.93085C36.9119 7.72517 36.8132 7.4372 36.8132 7.06696C36.8132 6.76136 36.9058 6.49104 37.0912 6.25596C37.2766 6.01501 37.5456 5.82694 37.8983 5.69178C38.257 5.55074 38.6845 5.48022 39.1806 5.48022C39.5333 5.48022 39.8831 5.51548 40.2298 5.586C40.3501 5.61044 40.4634 5.63842 40.57 5.66992C40.8807 5.7618 40.9976 6.11294 40.8647 6.40849V6.40849C40.7158 6.73983 40.3159 6.86648 39.9653 6.77134C39.717 6.70396 39.4585 6.67027 39.1896 6.67027C38.9206 6.67027 38.7233 6.7026 38.5978 6.76724C38.4722 6.82601 38.4094 6.90535 38.4094 7.00525C38.4094 7.11692 38.4782 7.19625 38.6157 7.24326C38.7531 7.28441 38.9804 7.32848 39.2972 7.37549C39.6978 7.43427 40.0296 7.50184 40.2926 7.57824C40.5556 7.65465 40.7829 7.79569 40.9742 8.00137C41.1714 8.20119 41.2701 8.48328 41.2701 8.84764C41.2701 9.14735 41.1775 9.41769 40.9921 9.65864C40.8067 9.89371 40.5318 10.0788 40.1671 10.214C39.8084 10.3492 39.375 10.4167 38.8668 10.4167ZM45.2841 9.68801C45.3795 9.95336 45.2743 10.2546 45.0015 10.3261C44.9745 10.3332 44.947 10.3399 44.9188 10.3462C44.7155 10.3932 44.4973 10.4167 44.2642 10.4167C43.6304 10.4167 43.1432 10.264 42.8024 9.95835C42.4617 9.65276 42.2913 9.19731 42.2913 8.59199V7.34184C42.2913 7.14621 42.1327 6.98762 41.9371 6.98762V6.98762C41.7415 6.98762 41.5829 6.82903 41.5829 6.6334V6.09008C41.5829 5.89445 41.7415 5.73586 41.9371 5.73586V5.73586C42.1327 5.73586 42.2913 5.57727 42.2913 5.38164V5.11439C42.2913 4.77116 42.5695 4.49291 42.9128 4.49291H43.3737C43.7169 4.49291 43.9951 4.77115 43.9951 5.11439V5.17987C43.9951 5.48694 44.2441 5.73586 44.5511 5.73586V5.73586C44.8582 5.73586 45.1071 5.98478 45.1071 6.29184V6.43164C45.1071 6.7387 44.8582 6.98762 44.5511 6.98762V6.98762C44.2441 6.98762 43.9951 7.23655 43.9951 7.54361V8.57436C43.9951 8.74479 44.04 8.87996 44.1296 8.97986C44.2252 9.0739 44.3507 9.12091 44.5063 9.12091V9.12091C44.7855 9.12091 45.1178 9.22535 45.2123 9.48809L45.2841 9.68801ZM48.266 5.48022C49.0731 5.48022 49.6889 5.6624 50.1133 6.02676C50.5379 6.38525 50.75 6.93766 50.75 7.68403V9.54378C50.75 9.98209 50.3947 10.3374 49.9564 10.3374H49.2853C49.2176 10.3374 49.1627 10.2826 49.1627 10.2149V10.2149C49.1627 10.0871 48.9506 10.0198 48.8504 10.0991C48.5826 10.3109 48.2085 10.4167 47.7279 10.4167C47.3513 10.4167 47.0255 10.3521 46.7505 10.2228C46.4756 10.0935 46.2662 9.92016 46.1228 9.70271C45.9853 9.4794 45.9165 9.22669 45.9165 8.9446C45.9165 8.49209 46.0929 8.14242 46.4456 7.89559C46.7984 7.64288 47.3423 7.51654 48.0777 7.51654V7.51654C48.6031 7.51654 48.9903 6.95956 48.485 6.8154C48.3519 6.77742 48.1952 6.75843 48.0149 6.75843C47.7817 6.75843 47.5457 6.79662 47.3065 6.87302V6.87302C46.9665 6.97334 46.5485 6.87913 46.3888 6.56265L46.3664 6.51832C46.2276 6.24335 46.3168 5.90296 46.6026 5.78823C46.7562 5.72659 46.9221 5.67387 47.1002 5.63008C47.4889 5.53018 47.8775 5.48022 48.266 5.48022ZM48.2032 9.35892C48.4005 9.35892 48.574 9.31191 48.7233 9.21788C48.8567 9.13397 48.9568 9.01498 49.0235 8.8609C49.0397 8.82346 49.0462 8.7827 49.0462 8.74191V8.74191C49.0462 8.54714 48.8883 8.38924 48.6935 8.38924H48.3108C47.8147 8.38924 47.5665 8.55085 47.5665 8.87408C47.5665 9.02101 47.6234 9.13854 47.7369 9.22669C47.8505 9.31484 48.0059 9.35892 48.2032 9.35892Z" fill="url(#paint0_linear_128_11)"/>
<path d="M34.1323 20.7411C33.7168 20.7411 33.3794 20.402 33.3774 19.9865V19.9865C33.3737 19.203 32.3228 18.935 31.9608 19.6299L31.9337 19.6819C31.8211 19.8982 31.5975 20.0338 31.3536 20.0338V20.0338C31.1125 20.0338 30.8909 19.9012 30.777 19.6886L30.7525 19.6428C30.3885 18.9635 29.3583 19.2268 29.3583 19.9974V19.9974C29.3583 20.4075 29.0259 20.7411 28.6158 20.7411H28.5385C28.0858 20.7411 27.7188 20.3741 27.7188 19.9213V14.4784C27.7188 13.9745 28.1272 13.566 28.6311 13.566V13.566C28.9684 13.566 29.2781 13.752 29.4366 14.0497L29.7215 14.5852C30.4251 15.907 32.3227 15.8974 33.0128 14.5684L33.2786 14.0566C33.4351 13.7552 33.7464 13.566 34.0861 13.566V13.566C34.5877 13.566 34.9947 13.972 34.9959 14.4736L35.0095 19.9229C35.0107 20.3744 34.6449 20.7411 34.1933 20.7411H34.1323ZM36.2758 16.0367C36.2758 15.5666 36.6568 15.1855 37.1269 15.1855V15.1855C37.5969 15.1855 37.978 15.5666 37.978 16.0367V19.89C37.978 20.36 37.5969 20.7411 37.1269 20.7411V20.7411C36.6568 20.7411 36.2758 20.36 36.2758 19.89V16.0367ZM37.1269 14.5705C36.8162 14.5705 36.5654 14.4714 36.3743 14.2733C36.1832 14.0752 36.0876 13.8292 36.0876 13.5353C36.0876 13.2414 36.1832 12.9954 36.3743 12.7973C36.5654 12.5991 36.8162 12.5 37.1269 12.5C37.4375 12.5 37.6884 12.5956 37.8795 12.787C38.0705 12.9715 38.1662 13.2106 38.1662 13.5045C38.1662 13.812 38.0705 14.0683 37.8795 14.2733C37.6884 14.4714 37.4375 14.5705 37.1269 14.5705ZM42.3365 15.0933C42.9397 15.0933 43.4235 15.2983 43.7879 15.7083C44.1582 16.1183 44.3434 16.7367 44.3434 17.5636V19.89C44.3434 20.36 43.9623 20.7411 43.4923 20.7411V20.7411C43.0222 20.7411 42.6411 20.36 42.6411 19.89V17.8813C42.6411 17.1228 42.3753 16.7435 41.8438 16.7435C41.551 16.7435 41.3152 16.8529 41.136 17.0715C40.9627 17.2902 40.8762 17.6182 40.8762 18.0556V19.89C40.8762 20.36 40.4951 20.7411 40.025 20.7411V20.7411C39.555 20.7411 39.1739 20.36 39.1739 19.89V15.9963C39.1739 15.5485 39.5369 15.1855 39.9847 15.1855H40.6333C40.7229 15.1855 40.7955 15.2582 40.7955 15.3478V15.3478C40.7955 15.4989 40.9955 15.5775 41.1167 15.4873C41.228 15.4044 41.3479 15.3345 41.4764 15.2778C41.7392 15.1548 42.0259 15.0933 42.3365 15.0933ZM49.7572 15.1855C50.2273 15.1855 50.6084 15.5666 50.6084 16.0367V19.9303C50.6084 20.3781 50.2454 20.7411 49.7976 20.7411H49.1405C49.0556 20.7411 48.9867 20.6722 48.9867 20.5873V20.5873C48.9867 20.4417 48.79 20.3673 48.6749 20.4565C48.5719 20.5364 48.4609 20.6039 48.3417 20.6591C48.0908 20.7752 47.8251 20.8333 47.5443 20.8333C46.9172 20.8333 46.4154 20.6214 46.0392 20.1978C45.6689 19.7742 45.4837 19.1387 45.4837 18.2913V16.0367C45.4837 15.5666 45.8648 15.1855 46.3348 15.1855V15.1855C46.8049 15.1855 47.1859 15.5666 47.1859 16.0367V17.9736C47.1859 18.3905 47.2547 18.6944 47.392 18.8858C47.5295 19.0772 47.7295 19.1728 47.9923 19.1728C48.2611 19.1728 48.4792 19.067 48.6463 18.8551C48.8196 18.6365 48.9061 18.3049 48.9061 17.8608V16.0367C48.9061 15.5666 49.2872 15.1855 49.7572 15.1855V15.1855ZM55.0052 20.0621C55.0889 20.3329 54.99 20.636 54.7199 20.7216C54.6864 20.7322 54.652 20.7421 54.6167 20.7513C54.4136 20.8059 54.1956 20.8333 53.9627 20.8333C53.3295 20.8333 52.8428 20.6557 52.5023 20.3003C52.1619 19.9449 51.9916 19.4155 51.9916 18.7116V17.1999C51.9916 17.0045 51.8332 16.846 51.6378 16.846V16.846C51.4423 16.846 51.2839 16.6876 51.2839 16.4922V15.7444C51.2839 15.549 51.4423 15.3905 51.6378 15.3905V15.3905C51.8332 15.3905 51.9916 15.2321 51.9916 15.0366V14.6679C51.9916 14.2688 52.3152 13.9453 52.7143 13.9453H52.9713C53.3704 13.9453 53.6939 14.2688 53.6939 14.6679V14.8351C53.6939 15.1418 53.9426 15.3905 54.2494 15.3905V15.3905C54.5562 15.3905 54.8048 15.6392 54.8048 15.946V16.2906C54.8048 16.5974 54.5562 16.846 54.2494 16.846V16.846C53.9426 16.846 53.6939 17.0947 53.6939 17.4015V18.6911C53.6939 18.8892 53.7387 19.0465 53.8283 19.1626C53.9238 19.272 54.0492 19.3266 54.2046 19.3266V19.3266C54.4746 19.3266 54.8094 19.4281 54.8891 19.6861L55.0052 20.0621ZM60.7147 17.9736V17.9736C60.7147 18.2445 60.4762 18.4553 60.2053 18.4553H57.9566C57.5509 18.4553 57.2491 18.8733 57.57 19.1216V19.1216C57.779 19.272 58.0388 19.3471 58.3495 19.3471C58.5824 19.3471 58.7824 19.3094 58.9497 19.2343V19.2343C59.2666 19.0969 59.6595 19.0915 59.8817 19.356L59.9813 19.4744C60.205 19.7407 60.2192 20.14 59.9409 20.3486C59.5097 20.6718 58.9613 20.8333 58.2957 20.8333C57.7282 20.8333 57.2296 20.7103 56.7995 20.4643C56.3695 20.2183 56.0349 19.8767 55.7961 19.4393C55.5631 19.0019 55.4467 18.5066 55.4467 17.9531C55.4467 17.4064 55.5601 16.9178 55.7871 16.4873C56.0201 16.0499 56.3395 15.7083 56.7458 15.4623C57.1519 15.2163 57.6088 15.0933 58.1165 15.0933C58.6003 15.0933 59.0393 15.2094 59.4335 15.4418C59.8277 15.6673 60.1382 15.9986 60.3653 16.436C60.5982 16.8665 60.7147 17.379 60.7147 17.9736ZM58.1255 16.477C57.8626 16.477 57.6417 16.5624 57.4625 16.7333V16.7333C57.1694 17.0223 57.5045 17.4303 57.9161 17.4303H58.3301C58.7441 17.4303 59.0791 17.019 58.7795 16.7333V16.7333C58.6062 16.5624 58.3882 16.477 58.1255 16.477ZM63.3541 20.8333C62.9479 20.8333 62.5478 20.7821 62.1536 20.6796C61.9776 20.6307 61.8171 20.5758 61.672 20.5148C61.3819 20.3927 61.2844 20.0492 61.3971 19.7553V19.7553C61.5563 19.3398 62.0785 19.1728 62.503 19.3061V19.3061C62.8076 19.395 63.1091 19.4393 63.4079 19.4393C63.6825 19.4393 63.8767 19.4086 63.9902 19.3471C64.1096 19.2787 64.1694 19.1831 64.1694 19.0601C64.1694 18.9371 64.0977 18.8517 63.9544 18.8038C63.8169 18.7492 63.596 18.698 63.2914 18.6501C62.9031 18.5955 62.5716 18.5237 62.2969 18.4348C62.0282 18.3459 61.7952 18.1819 61.5981 17.9428C61.401 17.7037 61.3025 17.3688 61.3025 16.9383C61.3025 16.5829 61.395 16.2687 61.5802 15.9953C61.7653 15.7152 62.034 15.4964 62.3865 15.3393C62.7449 15.1753 63.1719 15.0933 63.6677 15.0933C64.02 15.0933 64.3695 15.1343 64.7159 15.2163C64.8432 15.2464 64.9628 15.2811 65.0747 15.3205C65.3863 15.43 65.4997 15.7857 65.3807 16.0938V16.0938C65.2222 16.5041 64.7242 16.6564 64.2972 16.5511C64.0968 16.5017 63.89 16.477 63.6767 16.477C63.4079 16.477 63.2108 16.5147 63.0854 16.5898C62.9599 16.6582 62.8972 16.7504 62.8972 16.8665C62.8972 16.9964 62.9658 17.0887 63.1033 17.1433C63.2406 17.1912 63.4675 17.2424 63.7842 17.297C64.1842 17.3654 64.5157 17.4439 64.7786 17.5328C65.0414 17.6217 65.2683 17.7857 65.4596 18.0248C65.6567 18.2572 65.7552 18.5852 65.7552 19.0088C65.7552 19.3573 65.6625 19.6717 65.4775 19.9518C65.2923 20.2252 65.0175 20.4405 64.6532 20.5976C64.2948 20.7547 63.8617 20.8333 63.3541 20.8333Z" fill="#050C07"/>
<path d="M21.9493 1.38892H5.57153C3.92695 1.38892 2.59375 2.71548 2.59375 4.35188V20.6482C2.59375 22.2846 3.92695 23.6111 5.57153 23.6111H21.9493C23.5939 23.6111 24.9271 22.2846 24.9271 20.6482V4.35188C24.9271 2.71548 23.5939 1.38892 21.9493 1.38892Z" fill="url(#paint1_linear_128_11)"/>
<path fill-rule="evenodd" clip-rule="evenodd" d="M18.9507 6.99851C18.2011 6.25268 17.1867 5.83398 16.1293 5.83398H8.54919C7.72691 5.83398 7.0603 6.49727 7.0603 7.31547V17.6858C7.0603 18.5041 7.72691 19.1673 8.54919 19.1673H18.9714C19.7937 19.1673 20.4603 18.5041 20.4603 17.6858V10.1634C20.4603 9.09903 20.0361 8.07859 19.2817 7.32788L18.9507 6.99851Z" fill="#F4F5FA"/>
<path d="M17.7804 5.83398L20.4604 8.50065H17.9293C17.8471 8.50065 17.7804 8.43433 17.7804 8.3525V5.83398Z" fill="url(#paint2_linear_128_11)"/>
<path fill-rule="evenodd" clip-rule="evenodd" d="M12.4205 8.6483C12.4205 8.40284 12.2205 8.20386 11.9738 8.20386C11.7271 8.20386 11.5271 8.40284 11.5271 8.6483V16.352C11.5271 16.5975 11.7271 16.7965 11.9738 16.7965C12.2205 16.7965 12.4205 16.5975 12.4205 16.352V8.6483ZM15.5471 9.55201C15.7939 9.55201 15.9938 9.751 15.9938 9.99645V15.0039C15.9938 15.2493 15.7939 15.4483 15.5471 15.4483C15.3004 15.4483 15.1005 15.2493 15.1005 15.0039V9.99645C15.1005 9.751 15.3004 9.55201 15.5471 9.55201ZM13.7605 10.7076C14.0072 10.7076 14.2071 10.9065 14.2071 11.152V13.8483C14.2071 14.0938 14.0072 14.2927 13.7605 14.2927C13.5138 14.2927 13.3138 14.0938 13.3138 13.8483V11.152C13.3138 10.9065 13.5138 10.7076 13.7605 10.7076ZM10.6338 10.5742C10.6338 10.3288 10.4338 10.1298 10.1871 10.1298C9.94045 10.1298 9.74048 10.3288 9.74048 10.5742V14.4261C9.74048 14.6716 9.94045 14.8705 10.1871 14.8705C10.4338 14.8705 10.6338 14.6716 10.6338 14.4261V10.5742ZM17.3338 10.9002C17.5805 10.9002 17.7805 11.0991 17.7805 11.3446V13.6557C17.7805 13.9012 17.5805 14.1002 17.3338 14.1002C17.0871 14.1002 16.8871 13.9012 16.8871 13.6557V11.3446C16.8871 11.0991 17.0871 10.9002 17.3338 10.9002Z" fill="#F587BB"/>
<defs>
<linearGradient id="paint0_linear_128_11" x1="50.75" y1="10.4167" x2="27.2843" y2="4.18147" gradientUnits="userSpaceOnUse">
<stop stop-color="#8B68C9"/>
<stop offset="1" stop-color="#622AC2"/>
</linearGradient>
<linearGradient id="paint1_linear_128_11" x1="24.9271" y1="23.6111" x2="0.693154" y2="21.8549" gradientUnits="userSpaceOnUse">
<stop stop-color="#8B68C9"/>
<stop offset="1" stop-color="#622AC2"/>
</linearGradient>
<linearGradient id="paint2_linear_128_11" x1="20.4604" y1="8.50065" x2="17.5523" y2="8.28991" gradientUnits="userSpaceOnUse">
<stop stop-color="#8B68C9"/>
<stop offset="1" stop-color="#622AC2"/>
</linearGradient>
</defs>
</svg>
