<svg width="60" height="23" viewBox="0 0 60 23" fill="none" xmlns="http://www.w3.org/2000/svg">
<rect width="60" height="23" rx="5" fill="white"/>
<path d="M19.7054 9.54545C19.7054 10.7351 19.4799 11.7472 19.0289 12.5817C18.5815 13.4162 17.9707 14.0536 17.1966 14.494C16.426 14.9308 15.5595 15.1491 14.5971 15.1491C13.6277 15.1491 12.7576 14.929 11.987 14.4886C11.2164 14.0483 10.6074 13.4109 10.16 12.5763C9.71254 11.7418 9.48881 10.7315 9.48881 9.54545C9.48881 8.35582 9.71254 7.34375 10.16 6.50923C10.6074 5.67472 11.2164 5.03906 11.987 4.60227C12.7576 4.16193 13.6277 3.94176 14.5971 3.94176C15.5595 3.94176 16.426 4.16193 17.1966 4.60227C17.9707 5.03906 18.5815 5.67472 19.0289 6.50923C19.4799 7.34375 19.7054 8.35582 19.7054 9.54545ZM17.367 9.54545C17.367 8.77486 17.2516 8.125 17.0208 7.59588C16.7935 7.06676 16.4721 6.66548 16.0566 6.39205C15.6412 6.11861 15.1547 5.98189 14.5971 5.98189C14.0396 5.98189 13.5531 6.11861 13.1376 6.39205C12.7221 6.66548 12.399 7.06676 12.1681 7.59588C11.9409 8.125 11.8272 8.77486 11.8272 9.54545C11.8272 10.3161 11.9409 10.9659 12.1681 11.495C12.399 12.0241 12.7221 12.4254 13.1376 12.6989C13.5531 12.9723 14.0396 13.109 14.5971 13.109C15.1547 13.109 15.6412 12.9723 16.0566 12.6989C16.4721 12.4254 16.7935 12.0241 17.0208 11.495C17.2516 10.9659 17.367 10.3161 17.367 9.54545ZM30.5386 4.09091V15H28.5464L23.8003 8.13388H23.7204V15H21.414V4.09091H23.4381L28.1469 10.9517H28.2428V4.09091H30.5386ZM39.1825 4.09091H41.489V11.1754C41.489 11.9709 41.299 12.6669 40.919 13.2635C40.5426 13.8601 40.0153 14.3253 39.337 14.6591C38.6587 14.9893 37.8686 15.1545 36.9666 15.1545C36.0611 15.1545 35.2692 14.9893 34.5909 14.6591C33.9126 14.3253 33.3853 13.8601 33.0089 13.2635C32.6325 12.6669 32.4442 11.9709 32.4442 11.1754V4.09091H34.7507V10.9783C34.7507 11.3938 34.8413 11.7631 35.0224 12.0863C35.207 12.4094 35.4663 12.6634 35.8001 12.848C36.1339 13.0327 36.5227 13.125 36.9666 13.125C37.4141 13.125 37.8029 13.0327 38.1332 12.848C38.467 12.6634 38.7244 12.4094 38.9055 12.0863C39.0902 11.7631 39.1825 11.3938 39.1825 10.9783V4.09091ZM49.3046 7.22834C49.262 6.79865 49.0791 6.46484 48.7559 6.22692C48.4328 5.98899 47.9942 5.87003 47.4403 5.87003C47.0638 5.87003 46.746 5.9233 46.4868 6.02983C46.2275 6.13281 46.0287 6.27663 45.8902 6.46129C45.7552 6.64595 45.6878 6.85547 45.6878 7.08984C45.6807 7.28516 45.7215 7.45561 45.8103 7.60121C45.9026 7.7468 46.0287 7.87287 46.1885 7.9794C46.3483 8.08239 46.5329 8.17294 46.7425 8.25107C46.952 8.32564 47.1757 8.38956 47.4136 8.44283L48.3937 8.6772C48.8696 8.78374 49.3064 8.92578 49.7041 9.10334C50.1018 9.28089 50.4463 9.49929 50.7375 9.75852C51.0287 10.0178 51.2542 10.3232 51.414 10.6747C51.5773 11.0263 51.6608 11.4293 51.6643 11.8839C51.6608 12.5515 51.4903 13.1303 51.153 13.6204C50.8192 14.1069 50.3362 14.4851 49.7041 14.755C49.0756 15.0213 48.3174 15.1545 47.4296 15.1545C46.5489 15.1545 45.7819 15.0195 45.1285 14.7496C44.4786 14.4798 43.9708 14.0803 43.605 13.5511C43.2428 13.0185 43.0528 12.3597 43.0351 11.5749H45.267C45.2918 11.9407 45.3966 12.2461 45.5812 12.4911C45.7694 12.7326 46.0198 12.9155 46.3323 13.0398C46.6483 13.1605 47.0052 13.2209 47.403 13.2209C47.7936 13.2209 48.1327 13.1641 48.4204 13.0504C48.7116 12.9368 48.9371 12.7788 49.0969 12.5763C49.2567 12.3739 49.3366 12.1413 49.3366 11.8786C49.3366 11.6335 49.2638 11.4276 49.1182 11.2607C48.9761 11.0937 48.7666 10.9517 48.4896 10.8345C48.2162 10.7173 47.8806 10.6108 47.4829 10.5149L46.295 10.2166C45.3753 9.9929 44.6491 9.64311 44.1164 9.16726C43.5837 8.69141 43.3192 8.05043 43.3227 7.24432C43.3192 6.58381 43.4949 6.00675 43.8501 5.51314C44.2087 5.01953 44.7006 4.63423 45.3256 4.35724C45.9506 4.08026 46.6608 3.94176 47.4562 3.94176C48.2659 3.94176 48.9726 4.08026 49.5763 4.35724C50.1835 4.63423 50.6558 5.01953 50.9932 5.51314C51.3305 6.00675 51.5045 6.57848 51.5152 7.22834H49.3046Z" fill="black"/>
<path d="M24.3292 20V16.3636H26.7795V16.9975H25.0981V17.864H26.6535V18.4979H25.0981V19.3661H26.7866V20H24.3292ZM28.0175 20H27.1937L28.449 16.3636H29.4398L30.6933 20H29.8695L28.9586 17.1946H28.9302L28.0175 20ZM27.966 18.5707H29.9121V19.1708H27.966V18.5707ZM30.5482 16.9975V16.3636H33.5347V16.9975H32.4214V20H31.6614V16.9975H30.5482ZM35.9992 17.4094C35.985 17.2662 35.924 17.1549 35.8163 17.0756C35.7086 16.9963 35.5624 16.9567 35.3777 16.9567C35.2522 16.9567 35.1463 16.9744 35.0599 17.0099C34.9735 17.0443 34.9072 17.0922 34.861 17.1538C34.816 17.2153 34.7935 17.2852 34.7935 17.3633C34.7912 17.4284 34.8048 17.4852 34.8344 17.5337C34.8652 17.5823 34.9072 17.6243 34.9604 17.6598C35.0137 17.6941 35.0753 17.7243 35.1451 17.7504C35.2149 17.7752 35.2895 17.7965 35.3688 17.8143L35.6955 17.8924C35.8542 17.9279 35.9997 17.9753 36.1323 18.0344C36.2649 18.0936 36.3797 18.1664 36.4768 18.2528C36.5738 18.3393 36.649 18.4411 36.7023 18.5582C36.7567 18.6754 36.7845 18.8098 36.7857 18.9613C36.7845 19.1838 36.7277 19.3768 36.6153 19.5401C36.504 19.7023 36.343 19.8284 36.1323 19.9183C35.9228 20.0071 35.6701 20.0515 35.3742 20.0515C35.0806 20.0515 34.8249 20.0065 34.6071 19.9165C34.3905 19.8266 34.2212 19.6934 34.0993 19.517C33.9786 19.3395 33.9152 19.1199 33.9093 18.8583H34.6533C34.6616 18.9802 34.6965 19.082 34.758 19.1637C34.8208 19.2442 34.9042 19.3052 35.0084 19.3466C35.1137 19.3868 35.2327 19.407 35.3653 19.407C35.4955 19.407 35.6085 19.388 35.7044 19.3501C35.8015 19.3123 35.8766 19.2596 35.9299 19.1921C35.9832 19.1246 36.0098 19.0471 36.0098 18.9595C36.0098 18.8778 35.9855 18.8092 35.937 18.7536C35.8897 18.6979 35.8198 18.6506 35.7275 18.6115C35.6363 18.5724 35.5245 18.5369 35.3919 18.505L34.996 18.4055C34.6894 18.331 34.4473 18.2144 34.2698 18.0558C34.0922 17.8971 34.004 17.6835 34.0052 17.4148C34.004 17.1946 34.0626 17.0022 34.181 16.8377C34.3005 16.6732 34.4645 16.5447 34.6728 16.4524C34.8811 16.3601 35.1179 16.3139 35.383 16.3139C35.6529 16.3139 35.8885 16.3601 36.0897 16.4524C36.2921 16.5447 36.4496 16.6732 36.562 16.8377C36.6745 17.0022 36.7325 17.1928 36.736 17.4094H35.9992Z" fill="#F0D200"/>
</svg>
